<svg width="505" height="58" viewBox="0 0 505 58" fill="none" xmlns="http://www.w3.org/2000/svg">
<path d="M44.7344 39.98V46.04H55.2344V55.16H24.6344V47.12L20.1344 47.36V56.78H10.7144V48.02L0.694375 48.68L0.154375 39.2L10.7144 38.72V34.4H2.43438V24.98C3.55438 22.06 4.63438 18.68 5.67438 14.84H1.71438V5.9H8.07438L9.15438 1.1L18.5744 1.4C18.0144 3.76 17.6544 5.26 17.4944 5.9H24.7544V14.84H14.9744C14.7344 15.76 14.4544 16.6 14.1344 17.36L20.1344 17.54V25.52H24.1544V34.4H20.1344V38.18L24.7544 37.82L24.6944 43.04V46.04H34.6544V39.98H26.4944V30.56H28.6544L23.7944 22.34C29.8744 19.9 34.9944 16.76 39.1544 12.92H27.3344V3.5H52.2944V12.38C50.6144 14.38 48.8344 16.26 46.9544 18.02C50.5944 19.78 53.3544 21.2 55.2344 22.28L51.2144 30.56H52.7744V39.98H44.7344ZM13.2344 18.68C12.9544 19.56 12.3344 21.12 11.3744 23.36L10.3544 25.82H13.2344V18.68ZM29.6744 30.56H50.4944C48.0144 28.84 44.4544 26.68 39.8144 24.08C36.8544 26.28 33.4744 28.44 29.6744 30.56ZM79.6084 39.8C77.7284 37.52 76.5484 36.12 76.0684 35.6V56.6H66.8884V36.32C65.7684 38.2 64.5684 40.04 63.2884 41.84C62.0484 43.6 60.9884 45.02 60.1084 46.1L58.3684 33.56C60.1684 31.12 61.8284 28.62 63.3484 26.06C64.9084 23.46 66.0284 21.18 66.7084 19.22H60.5284V9.92H66.8884V1.04L76.0684 1.28V9.92H81.7084V18.86C84.7084 13.94 86.9084 8.52 88.3084 2.6L96.5284 5.6C95.2484 9.84 93.6484 14.04 91.7284 18.2C89.8484 22.36 87.7684 26.14 85.4884 29.54L78.7684 23.24C79.8484 21.8 80.7484 20.46 81.4684 19.22H76.0684V27.2L77.6284 25.52C78.3484 26.08 79.5284 27.18 81.1684 28.82C82.8484 30.46 84.1084 31.78 84.9484 32.78L79.6084 39.8ZM108.168 30.14C105.608 25.54 103.368 21.06 101.448 16.7C99.5684 12.3 98.0884 7.82 97.0084 3.26L105.168 1.22C106.528 7.5 110.188 15.32 116.148 24.68L108.168 30.14ZM106.008 31.28C107.848 35.48 110.528 42.78 114.048 53.18L105.408 56.72L104.388 52.94C97.9484 53.38 93.7884 53.74 91.9084 54.02C87.1884 54.54 84.2484 54.92 83.0884 55.16L80.3884 45.62C81.5084 44.98 82.3884 44.32 83.0284 43.64C83.7084 42.92 84.3484 41.94 84.9484 40.7C86.1084 38.42 87.3484 35.48 88.6684 31.88C90.0284 28.24 91.3084 24.5 92.5084 20.66L101.328 23.24C98.8484 31.2 96.1884 38.24 93.3484 44.36C94.4684 44.32 95.5284 44.26 96.5284 44.18C97.5684 44.1 98.4684 44.04 99.2284 44L101.628 43.82C100.508 40.34 99.2884 36.96 97.9684 33.68L106.008 31.28ZM168.243 45.8C169.683 45.8 171.763 45.76 174.483 45.68L172.023 55.52C170.663 55.6 168.583 55.64 165.783 55.64C163.023 55.64 160.943 55.6 159.543 55.52C154.783 55.32 150.523 54.58 146.763 53.3C143.043 52.02 139.703 50 136.743 47.24C134.143 50.4 130.863 53.74 126.903 57.26L119.103 50.06C123.743 46.34 127.523 42.68 130.443 39.08C129.243 37.08 128.083 34.68 126.963 31.88C125.963 33.52 124.903 35.12 123.783 36.68L119.103 27.26C121.303 23.54 123.203 19.42 124.803 14.9C126.443 10.34 127.643 5.72 128.403 1.04L138.063 1.94C137.703 4.1 137.263 6.12 136.743 8H149.703V18.44C148.503 26.2 146.083 33.14 142.443 39.26C144.843 41.38 147.623 42.94 150.783 43.94C153.943 44.9 157.683 45.48 162.003 45.68C164.803 45.76 166.883 45.8 168.243 45.8ZM162.843 43.22H153.423V1.04L162.843 1.28V14.48C167.483 17.4 171.343 20.04 174.423 22.4L170.883 32.96C169.123 31.44 166.443 29.28 162.843 26.48V43.22ZM136.083 30.56C138.123 26.56 139.563 22.32 140.403 17.84H133.683L132.543 20.84C133.543 24.48 134.723 27.72 136.083 30.56ZM218.897 47H233.657V55.46H195.677V51.32C187.477 52.6 181.697 53.46 178.337 53.9L177.797 44.18L183.977 43.34V32.3H179.837V23.12H183.977V12.98H179.357V3.74H196.937V12.98H192.797V23.12H196.577V32.3H192.797V42.2C194.557 42 195.857 41.82 196.697 41.66V47H210.437V43.7H198.977V35.72H210.437V32.48H199.097V2.72H230.357V32.48H218.897V35.72H230.957V43.7H218.897V47ZM210.977 15.02V11.6H207.377V15.02H210.977ZM218.477 15.02H222.017V11.6H218.477V15.02ZM210.977 21.14H207.377V24.56H210.977V21.14ZM218.477 21.14V24.56H222.017V21.14H218.477ZM392.718 55.4V2.24H444.378V55.4H392.718ZM435.258 10.94H401.718V26.42C405.478 25.58 408.638 24.76 411.198 23.96C410.558 23.52 409.598 22.82 408.318 21.86L405.498 23.72L401.778 18.2C403.698 16.96 405.178 15.94 406.218 15.14C407.258 14.3 408.398 13.2 409.638 11.84L418.218 12.02C417.658 12.82 417.218 13.42 416.898 13.82H432.798V20C430.518 21.56 428.438 22.9 426.558 24.02C429.158 24.78 432.058 25.46 435.258 26.06V10.94ZM413.118 19.28C414.878 20.48 416.738 21.48 418.698 22.28C420.058 21.8 422.138 20.8 424.938 19.28H413.118ZM401.718 46.82H435.258V27.26L432.738 33.38C432.378 33.26 431.158 32.88 429.078 32.24L428.718 37.04C421.678 36.2 414.798 35.62 408.078 35.3L408.618 31.88L404.418 33.14L401.718 26.72V46.82ZM418.578 28.16C416.978 28.88 414.898 29.7 412.338 30.62C417.098 30.86 422.218 31.26 427.698 31.82C424.218 30.62 421.178 29.4 418.578 28.16ZM405.198 37.28C408.598 37.4 413.058 37.68 418.578 38.12C424.138 38.56 428.758 39 432.438 39.44L431.838 46.04C428.478 45.6 423.958 45.14 418.278 44.66C412.638 44.18 407.958 43.84 404.238 43.64L405.198 37.28ZM504.872 24.5H467.972C467.892 26.86 467.812 28.64 467.732 29.84H495.212V56.3H485.192V39.68H466.532C465.932 42.6 465.092 45.36 464.012 47.96C462.972 50.52 461.552 53.44 459.752 56.72L449.852 51.8C451.732 49 453.252 46.26 454.412 43.58C455.612 40.9 456.532 37.82 457.172 34.34C457.812 30.86 458.152 26.78 458.192 22.1V1.52L467.972 1.76V14.6H482.192V0.859996L491.972 1.1V14.6H504.872V24.5Z" fill="white"/>
<path d="M270.751 4.4H278.551C277.711 6.68 276.931 9.6 276.211 13.16C275.531 16.68 275.171 19.68 275.131 22.16H265.111C265.111 19.92 265.711 16.96 266.911 13.28C268.151 9.56 269.431 6.6 270.751 4.4ZM255.271 4.4H263.071C262.231 6.68 261.451 9.6 260.731 13.16C260.051 16.68 259.691 19.68 259.651 22.16H249.631C249.631 19.92 250.231 16.96 251.431 13.28C252.671 9.56 253.951 6.6 255.271 4.4ZM310.787 18.56C310.307 23.08 309.667 26.96 308.867 30.2C308.107 33.4 307.087 36.34 305.807 39.02C308.087 40.86 310.407 42.82 312.767 44.9L307.247 53.78C305.207 51.74 302.947 49.6 300.467 47.36C298.307 50.04 295.147 53.36 290.987 57.32L283.847 50.6C287.727 47.4 290.947 44.28 293.507 41.24C290.627 38.84 288.187 36.86 286.187 35.3C287.627 29.74 288.807 24.22 289.727 18.74H285.887V8.96H291.107C291.387 6.32 291.627 3.68 291.827 1.04L301.127 1.46C301.087 2.34 301.007 3.2 300.887 4.04C300.807 4.88 300.727 5.66 300.647 6.38L300.347 8.96H310.787V18.56ZM340.187 24.44V34.7H330.527V48.38C330.527 50.54 330.287 52.14 329.807 53.18C329.327 54.22 328.467 54.98 327.227 55.46C326.027 55.94 324.127 56.3 321.527 56.54L317.207 56.96L314.327 46.88L317.567 46.58C318.807 46.46 319.607 46.18 319.967 45.74C320.367 45.3 320.567 44.44 320.567 43.16V34.7H311.147V24.44H320.567V20.24L326.747 12.92H313.007V2.9H338.267V13.16L330.527 20.48V24.44H340.187ZM298.127 18.74C297.247 24.18 296.467 28.28 295.787 31.04L299.207 33.74C299.967 31.38 300.607 28.88 301.127 26.24C301.687 23.56 302.067 21.06 302.267 18.74H298.127ZM365.161 4.4H375.181C375.181 6.64 374.561 9.62 373.321 13.34C372.121 17.02 370.861 19.96 369.541 22.16H361.741C362.581 19.88 363.341 16.98 364.021 13.46C364.741 9.9 365.121 6.88 365.161 4.4ZM349.681 4.4H359.701C359.701 6.64 359.081 9.62 357.841 13.34C356.641 17.02 355.381 19.96 354.061 22.16H346.261C347.101 19.88 347.861 16.98 348.541 13.46C349.261 9.9 349.641 6.88 349.681 4.4Z" fill="#E63050"/>
</svg>
