<svg width="134" height="30" viewBox="0 0 134 30" fill="none" xmlns="http://www.w3.org/2000/svg">
<path d="M63.5869 23.5691C59.2491 22.4531 56.6931 21.3065 55.2326 19.7929H63.2802C63.4117 19.7929 63.5139 19.6859 63.5139 19.5483V17.6372C63.5139 17.4997 63.4117 17.3926 63.2802 17.3926H54.3855V15.7568H63.2656C63.397 15.7568 63.4993 15.6498 63.4993 15.5122V13.6011C63.4993 13.4635 63.397 13.3565 63.2656 13.3565H54.3855V11.6136H62.287C62.4185 11.6136 62.5207 11.5066 62.5207 11.369V9.45796C62.5207 9.32036 62.4185 9.21334 62.287 9.21334H54.3855V7.79152H63.2656C63.397 7.79152 63.4993 7.6845 63.4993 7.54691V5.62057C63.4993 5.48297 63.397 5.37596 63.2656 5.37596H60.5782L61.1186 4.36692C61.1624 4.29048 61.1624 4.19875 61.1186 4.12231C61.0748 4.04587 61.0017 4 60.9141 4H58.3582C58.2705 4 58.1975 4.04587 58.1537 4.12231L57.4818 5.37596H48.441L47.7692 4.12231C47.7254 4.04587 47.6523 4 47.5647 4H45.0379C44.9503 4 44.8773 4.04587 44.8335 4.12231C44.7896 4.19875 44.7896 4.29048 44.8335 4.36692L45.3739 5.37596H42.5842C42.4528 5.37596 42.3505 5.48297 42.3505 5.62057V7.53162C42.3505 7.66921 42.4528 7.77623 42.5842 7.77623H51.5666V9.19805H43.665C43.5336 9.19805 43.4313 9.30507 43.4313 9.44267V11.3537C43.4313 11.4913 43.5336 11.5983 43.665 11.5983H51.5666V13.3412H42.5842C42.4528 13.3412 42.3505 13.4482 42.3505 13.5858V15.4969C42.3505 15.6345 42.4528 15.7415 42.5842 15.7415H51.5666V17.3773H42.5842C42.4528 17.3773 42.3505 17.4844 42.3505 17.622V19.533C42.3505 19.6706 42.4528 19.7776 42.5842 19.7776H50.6464C49.1567 21.3982 46.5715 22.5448 42.1899 23.5997C42.0876 23.6303 42 23.722 42 23.8443V25.7401C42 25.8165 42.0292 25.893 42.0876 25.9388C42.1314 25.9694 42.1753 26 42.2337 26H42.2775C45.2424 25.312 47.5063 24.5476 49.2151 23.6762C50.8363 22.8353 52.0486 21.8416 52.9249 20.6338C53.6698 21.6428 54.663 22.5142 55.9628 23.2634C57.7155 24.2877 60.0378 25.1133 63.4701 25.9847H63.5285C63.5869 25.9847 63.6307 25.9694 63.6746 25.9388C63.733 25.893 63.7622 25.8165 63.7622 25.7401V23.829C63.7622 23.7067 63.6892 23.5997 63.5869 23.5691Z" fill="white"/>
<path fill-rule="evenodd" clip-rule="evenodd" d="M69.5021 15.8332H69.4583C69.4145 15.8332 69.3561 15.8179 69.3123 15.8026C69.2538 15.7568 69.2246 15.6956 69.2246 15.6192V14.1515C69.2246 14.0292 69.2977 13.9222 69.4145 13.9069C70.9627 13.6317 72.5693 13.2189 74.1905 12.6685C72.803 11.9805 71.7952 11.3231 71.2548 10.9409C70.7582 11.3996 70.247 11.8582 69.7212 12.2863C69.6774 12.3169 69.6336 12.3322 69.5752 12.3322C69.546 12.3322 69.5021 12.3169 69.4729 12.3016C69.3999 12.2557 69.3415 12.164 69.3415 12.0723V10.2071C69.3415 10.1459 69.3707 10.0695 69.4291 10.0236C70.247 9.28977 71.1233 8.41833 72.0143 7.42459C72.0581 7.37872 72.1311 7.34814 72.1896 7.34814H74.0591C74.1905 7.34814 74.2927 7.45516 74.2927 7.59276C74.2927 7.65391 74.2781 7.71506 74.2343 7.76093C74.1965 7.80841 74.1509 7.85999 74.1035 7.91355C74.0594 7.96344 74.0137 8.0151 73.9714 8.0667H82.7785C82.91 8.0667 83.0122 8.17372 83.0122 8.31131V10.6046C83.0122 10.6963 82.9684 10.7727 82.8954 10.8186C82.0775 11.2925 80.836 11.9805 79.2878 12.6991C80.8652 13.28 82.428 13.7846 83.947 14.1973C84.0492 14.2279 84.1222 14.3349 84.1222 14.442V15.9249C84.1222 16.0014 84.093 16.0778 84.0346 16.1237C83.9908 16.1543 83.947 16.1695 83.8886 16.1695C83.8812 16.1695 83.8703 16.1657 83.8593 16.1619C83.8484 16.1581 83.8374 16.1543 83.8301 16.1543C81.5225 15.5427 79.1418 14.7477 76.7465 13.7846C74.2781 14.7477 71.839 15.4357 69.5021 15.8332ZM80.3686 9.99304H73.358C74.2051 10.5128 75.3443 11.1244 76.7319 11.69C77.9587 11.1855 79.1856 10.6199 80.3686 9.99304Z" fill="white"/>
<path d="M80.354 18.7992C80.3613 18.7992 80.3723 18.803 80.3832 18.8068C80.3942 18.8106 80.4052 18.8144 80.4125 18.8144C80.4709 18.8144 80.5147 18.7992 80.5585 18.7686C80.6169 18.7227 80.6461 18.6463 80.6461 18.5698V16.8728C80.6461 16.7658 80.5731 16.6588 80.4709 16.6282C76.7611 15.6803 73.0513 15.5427 72.6277 15.5274C72.5693 15.5274 72.5109 15.558 72.4671 15.6039C72.4232 15.6497 72.394 15.7109 72.394 15.7873V17.4385C72.394 17.5761 72.4963 17.6831 72.6277 17.6831C73.2996 17.6831 76.8925 17.8666 80.354 18.7992Z" fill="white"/>
<path d="M70.5537 18.9673C71.211 18.9826 77.2138 19.1661 83.0268 20.2363C83.1437 20.2668 83.2167 20.3739 83.2313 20.4809V22.1626C83.2313 22.2238 83.2021 22.3002 83.1437 22.3461C83.0999 22.3919 83.056 22.4072 82.9976 22.4072H82.9538C77.3745 21.3523 71.6492 21.1536 70.5537 21.123C70.4223 21.123 70.32 21.016 70.32 20.8784V19.2272C70.32 19.1508 70.3493 19.0896 70.3931 19.0438C70.4369 18.9979 70.4953 18.9673 70.5537 18.9673Z" fill="white"/>
<path fill-rule="evenodd" clip-rule="evenodd" d="M87.2186 4.25993H66.1867C66.0552 4.25993 65.953 4.36695 65.953 4.50455V25.6484C65.953 25.786 66.0552 25.893 66.1867 25.893H83.2751C85.5828 25.893 87.4523 23.9361 87.4523 21.5205V4.50455C87.4523 4.36695 87.3501 4.25993 87.2186 4.25993ZM85.0132 21.5205C85.0132 22.5143 84.2391 23.3398 83.2751 23.3398H68.3921V6.81309H85.0132V21.5205Z" fill="white"/>
<path d="M110.485 8.46421H101.663V7.0271C104.789 6.9048 107.403 6.75191 109.434 6.56845C109.55 6.55316 109.653 6.44614 109.653 6.32384V4.47394C109.653 4.3975 109.623 4.33634 109.58 4.29048C109.536 4.24461 109.477 4.22933 109.419 4.22933H109.404C103.007 4.82557 92.5058 4.90202 91.3227 4.90202C91.1913 4.90202 91.0891 5.00903 91.0891 5.14663V6.99653C91.0891 7.05768 91.1183 7.11883 91.1621 7.1647C91.2059 7.21056 91.2643 7.24114 91.3227 7.24114C91.9216 7.24114 95.0617 7.22585 98.8884 7.11883V8.46421H90.0667C89.9352 8.46421 89.833 8.57123 89.833 8.70883V10.36C89.833 10.4976 89.9352 10.6046 90.0667 10.6046H95.2224C93.9955 11.5678 92.1991 12.7144 90.0083 13.4482C89.906 13.4788 89.8476 13.5705 89.8476 13.6776V15.4051C89.8476 15.4816 89.8768 15.558 89.9352 15.6039C89.979 15.6345 90.0229 15.6498 90.0813 15.6498C90.1105 15.6498 90.1251 15.6498 90.1397 15.6345C94.5067 14.3197 97.457 11.5219 98.3626 10.5893H98.8738V14.8853C98.8738 15.0229 98.976 15.13 99.1075 15.13H101.415C101.547 15.13 101.649 15.0229 101.649 14.8853V10.6199H102.364C103.255 11.5372 106.133 14.2738 110.398 15.6039C110.412 15.6039 110.423 15.6077 110.434 15.6115C110.445 15.6154 110.456 15.6192 110.471 15.6192C110.514 15.6192 110.573 15.6039 110.617 15.5733C110.675 15.5274 110.719 15.451 110.719 15.3746V13.647C110.719 13.54 110.66 13.4482 110.558 13.4177C108.455 12.6838 106.746 11.5678 105.548 10.6352H110.5C110.631 10.6352 110.733 10.5281 110.733 10.3905V8.72411C110.719 8.58652 110.617 8.46421 110.485 8.46421Z" fill="white"/>
<path d="M106.732 18.631H110.383C110.514 18.631 110.617 18.7533 110.602 18.8603V22.1473C110.602 24.303 108.893 25.8624 106.542 25.8624H103.504C103.372 25.8624 103.27 25.7554 103.27 25.6178V23.7679C103.27 23.6303 103.372 23.5233 103.504 23.5233H106.542C107.374 23.5233 108.353 23.1716 108.353 22.1626V20.9701H103.723C103.65 20.9701 103.577 20.9242 103.533 20.8631C103.489 20.8019 103.475 20.7102 103.504 20.6337L104.409 18.3099H96.4493C96.1864 19.747 95.3247 22.9576 92.8563 25.8012C92.8125 25.8471 92.7541 25.8777 92.6811 25.8777H90.1105C90.0083 25.8777 89.9206 25.8012 89.8914 25.7095C89.8622 25.6178 89.8914 25.4955 89.9644 25.4343C92.7395 23.0799 93.7911 19.854 94.1562 18.3099H91.5418C91.4104 18.3099 91.3081 18.2029 91.3081 18.0653V16.2154C91.3081 16.0778 91.4104 15.9708 91.5418 15.9708H107.418C107.491 15.9708 107.564 16.0166 107.608 16.0778C107.652 16.139 107.666 16.2307 107.637 16.3071L106.732 18.631Z" fill="white"/>
<path d="M134 10.36V8.72411C134 8.58652 133.898 8.4795 133.766 8.4795H124.945V7.04239C128.07 6.92008 130.685 6.7672 132.715 6.58374C132.832 6.56845 132.934 6.46143 132.934 6.33912V4.47394C132.934 4.3975 132.905 4.33634 132.861 4.29048C132.817 4.24461 132.759 4.22933 132.7 4.22933H132.686C126.288 4.82557 115.787 4.90202 114.604 4.90202C114.472 4.90202 114.37 5.00903 114.37 5.14663V6.99653C114.37 7.05768 114.399 7.11883 114.443 7.1647C114.487 7.21056 114.545 7.24114 114.604 7.24114C115.203 7.24114 118.343 7.22585 122.17 7.11883V8.46421H113.348C113.216 8.46421 113.114 8.57123 113.114 8.70883V10.36C113.114 10.4976 113.216 10.6046 113.348 10.6046H118.504C117.277 11.5678 115.48 12.7144 113.289 13.4482C113.187 13.4788 113.129 13.5705 113.129 13.6776V15.4051C113.129 15.4816 113.158 15.558 113.216 15.6039C113.26 15.6345 113.304 15.6498 113.362 15.6498C113.392 15.6498 113.406 15.6498 113.421 15.6345C117.788 14.3197 120.738 11.5219 121.644 10.5893H122.155V14.8853C122.155 15.0229 122.257 15.13 122.389 15.13H124.696C124.828 15.13 124.93 15.0229 124.93 14.8853V10.6199H125.646C126.537 11.5372 129.414 14.2738 133.679 15.6039C133.693 15.6039 133.704 15.6077 133.715 15.6115C133.726 15.6154 133.737 15.6192 133.752 15.6192C133.796 15.6192 133.854 15.6039 133.898 15.5733C133.956 15.5274 134 15.451 134 15.3746V13.647C134 13.54 133.942 13.4482 133.839 13.4177C131.736 12.6838 130.027 11.5678 128.83 10.6352H133.781C133.898 10.6199 134 10.4976 134 10.36Z" fill="white"/>
<path d="M130.013 18.631H133.664C133.796 18.631 133.898 18.7533 133.898 18.8603V22.1473C133.898 24.303 132.189 25.8624 129.837 25.8624H126.799C126.668 25.8624 126.566 25.7554 126.566 25.6178V23.7679C126.566 23.6303 126.668 23.5233 126.799 23.5233H129.837C130.67 23.5233 131.649 23.1716 131.649 22.1626V20.9701H127.019C126.946 20.9701 126.873 20.9242 126.829 20.8631C126.785 20.8019 126.77 20.7102 126.799 20.6337L127.705 18.3099H119.73C119.468 19.747 118.606 22.9576 116.137 25.8012C116.094 25.8471 116.035 25.8777 115.962 25.8777H113.392C113.289 25.8777 113.202 25.8012 113.173 25.7095C113.143 25.6178 113.173 25.4955 113.246 25.4343C116.021 23.0799 117.072 19.854 117.437 18.3099H114.823C114.692 18.3099 114.589 18.2029 114.589 18.0653V16.2154C114.589 16.0778 114.692 15.9708 114.823 15.9708H130.699C130.772 15.9708 130.845 16.0166 130.889 16.0778C130.933 16.139 130.947 16.2307 130.918 16.3071L130.013 18.631Z" fill="white"/>
<path d="M10.4608 0H19.5392C22.5498 0 24.0492 0 25.6775 0.515424C27.4463 1.1597 28.8403 2.55369 29.4846 4.32253C30 5.93909 30 7.45021 30 10.4608V19.5392C30 22.5498 30 24.0492 29.4846 25.6775C28.8403 27.4463 27.4463 28.8403 25.6775 29.4846C24.0609 30 22.5498 30 19.5392 30H10.4608C7.45021 30 5.9508 30 4.32253 29.4846C2.55369 28.8403 1.1597 27.4463 0.515424 25.6775C0 24.0492 0 22.5381 0 19.5275V10.4608C0 7.45021 0 5.9508 0.515424 4.32253C1.1597 2.55369 2.55369 1.1597 4.32253 0.515424C5.93909 0 7.45021 0 10.4608 0Z" fill="url(#paint0_linear_7539_171142)"/>
<path d="M22.6523 11.0039C22.8516 10.8984 23.0859 11.0508 23.0859 11.2734L23.0742 12.5625C23.0742 12.6797 23.0156 12.7852 22.9102 12.832L22.0078 13.2656C21.7383 13.3945 21.5625 13.6758 21.5625 13.9805V17.8242C21.5625 18 21.4219 18.1289 21.2578 18.1289H20.1211C19.9453 18.1289 19.8164 17.9883 19.8164 17.8242V14.9531C19.8164 14.6719 19.5234 14.4844 19.2656 14.6133L18 15.2344C17.5313 15.4805 16.9688 15.4688 16.5117 15.1992C16.0313 14.918 15.75 14.3906 15.75 13.8281V13.3828C15.75 13.0781 15.4219 12.8906 15.1641 13.043L13.1953 14.1914C12.3633 14.6719 11.3555 14.8125 10.4297 14.5547L9.25782 14.2031C8.95313 14.1094 8.63672 14.3438 8.63672 14.6719L8.64844 17.8242C8.64844 17.9883 8.50782 18.1289 8.34375 18.1289H7.20703C7.03125 18.1289 6.90235 17.9883 6.90235 17.8242V14.2266C6.90235 13.6406 7.17188 13.1016 7.64063 12.75C8.10938 12.3984 8.70703 12.2813 9.26953 12.4336L10.8984 12.8789C11.3789 13.0078 11.8945 12.9375 12.3281 12.6914L14.8828 11.2148C15.4219 10.9102 16.0781 10.9102 16.6172 11.2148C17.168 11.5195 17.4961 12.1172 17.4961 12.75V13.0547C17.4961 13.2891 17.7305 13.4414 17.9414 13.3359L22.6523 11.0039Z" fill="white"/>
<path fill-rule="evenodd" clip-rule="evenodd" d="M2.10938 15C2.10938 7.875 7.875 2.10938 15 2.10938C22.125 2.10938 27.8906 7.875 27.8906 15C27.8906 22.125 22.125 27.8906 15 27.8906C7.875 27.8906 2.10938 22.125 2.10938 15ZM3.38672 15C3.38672 21.4102 8.58984 26.6133 15 26.6133C21.4102 26.6133 26.6133 21.4102 26.6133 15C26.6133 8.58984 21.4102 3.38672 15 3.38672C8.58984 3.38672 3.38672 8.58984 3.38672 15Z" fill="white"/>
<defs>
<linearGradient id="paint0_linear_7539_171142" x1="27.9946" y1="27.9945" x2="1.99374" y2="1.99372" gradientUnits="userSpaceOnUse">
<stop stop-color="#FF5F3D"/>
<stop offset="1" stop-color="#FF1383"/>
</linearGradient>
</defs>
</svg>
